<svg width="20" height="16" viewBox="0 0 20 16" fill="none" xmlns="http://www.w3.org/2000/svg">
<path d="M2.49996 2.16536L8.97673 7.20285C9.57858 7.67096 10.4213 7.67095 11.0232 7.20285L17.5 2.16536M4.33329 14.6654H15.6666C16.6 14.6654 17.0668 14.6654 17.4233 14.4837C17.7369 14.3239 17.9918 14.069 18.1516 13.7553C18.3333 13.3988 18.3333 12.9321 18.3333 11.9987V3.9987C18.3333 3.06528 18.3333 2.59857 18.1516 2.24205C17.9918 1.92844 17.7369 1.67348 17.4233 1.51369C17.0668 1.33203 16.6 1.33203 15.6666 1.33203H4.33329C3.39987 1.33203 2.93316 1.33203 2.57664 1.51369C2.26304 1.67348 2.00807 1.92844 1.84828 2.24205C1.66663 2.59857 1.66663 3.06528 1.66663 3.9987V11.9987C1.66663 12.9321 1.66663 13.3988 1.84828 13.7553C2.00807 14.069 2.26304 14.3239 2.57664 14.4837C2.93316 14.6654 3.39987 14.6654 4.33329 14.6654Z" stroke="#A5ACBA" stroke-width="1.5"/>
</svg>
